<?xml version="1.0" standalone="no"?>
<!DOCTYPE svg PUBLIC "-//W3C//DTD SVG 20010904//EN"
 "http://www.w3.org/TR/2001/REC-SVG-20010904/DTD/svg10.dtd">
<svg version="1.0" xmlns="http://www.w3.org/2000/svg"
 width="70.000000pt" height="70.000000pt" viewBox="0 0 70.000000 70.000000"
 preserveAspectRatio="xMidYMid meet">
<metadata>
Created by potrace 1.16, written by Peter Selinger 2001-2019
</metadata>
<g transform="translate(0.000000,70.000000) scale(0.003418,-0.003418)"
fill="#000000" stroke="none">
<path d="M9740 20474 c-419 -27 -675 -51 -970 -94 -1517 -218 -2942 -764
-4215 -1615 -1368 -914 -2482 -2125 -3290 -3575 -110 -198 -312 -607 -405
-819 -470 -1076 -734 -2133 -836 -3336 -21 -257 -30 -1040 -15 -1331 54 -1006
246 -1977 575 -2899 1032 -2900 3321 -5186 6229 -6221 209 -74 301 -89 443
-73 190 21 322 106 398 256 58 115 57 87 49 1166 -5 772 -9 987 -19 987 -6 0
-79 -11 -160 -25 -809 -134 -1500 -111 -2044 67 -574 189 -982 559 -1192 1082
-129 321 -359 728 -583 1031 -158 215 -340 398 -481 484 -298 182 -445 315
-489 442 -56 157 141 248 505 236 215 -7 362 -44 565 -142 209 -101 378 -229
585 -441 151 -156 268 -306 390 -499 268 -427 557 -702 925 -880 441 -214 942
-252 1505 -115 196 48 526 168 536 194 2 6 15 72 29 147 85 466 275 861 545
1135 46 46 81 86 79 87 -2 2 -98 16 -214 31 -1303 169 -2249 528 -2959 1122
-149 125 -382 362 -499 509 -540 675 -852 1540 -952 2645 -43 475 -41 960 5
1315 100 772 418 1490 916 2070 38 44 75 88 82 97 11 14 7 35 -27 137 -112
336 -161 653 -161 1054 0 443 69 857 214 1285 87 255 85 251 126 259 19 5 112
8 205 7 314 -1 637 -77 1090 -257 388 -154 979 -474 1403 -759 l73 -49 242 60
c614 153 1170 236 1817 272 270 15 1011 6 1260 -15 574 -49 1092 -135 1592
-262 l217 -55 73 49 c957 645 1881 1022 2502 1022 106 0 221 -12 233 -24 2 -2
26 -65 53 -140 248 -682 317 -1409 194 -2051 -23 -122 -79 -331 -115 -428
l-31 -88 36 -42 c462 -538 737 -1057 891 -1681 91 -366 120 -633 119 -1086 -2
-1001 -160 -1824 -489 -2540 -354 -771 -940 -1382 -1710 -1781 -641 -333
-1412 -548 -2362 -660 -57 -7 -103 -15 -103 -18 0 -4 32 -38 71 -76 353 -347
564 -895 609 -1580 7 -107 8 -650 4 -1650 -7 -1397 -6 -1494 10 -1550 51 -174
150 -280 313 -336 58 -20 88 -24 198 -24 146 1 155 3 411 95 763 276 1484 641
2174 1101 923 615 1736 1369 2416 2244 1222 1570 1960 3462 2123 5440 32 388
42 1036 21 1415 -179 3236 -1851 6165 -4545 7965 -1468 981 -3095 1543 -4895
1691 -181 15 -1129 28 -1290 18z"/>
</g>
</svg>
