<?xml version="1.0" standalone="no"?>
<!DOCTYPE svg PUBLIC "-//W3C//DTD SVG 20010904//EN"
 "http://www.w3.org/TR/2001/REC-SVG-20010904/DTD/svg10.dtd">
<svg version="1.0" xmlns="http://www.w3.org/2000/svg"
 width="200.000000pt" height="200.000000pt" viewBox="0 0 200.000000 200.000000"
 preserveAspectRatio="xMidYMid meet">
<metadata>
Created by potrace 1.16, written by Peter Selinger 2001-2019
</metadata>
<g transform="translate(0.000000,200.000000) scale(0.021739,-0.021739)"
fill="#000000" stroke="none">
<path d="M4375 8718 c-485 -22 -955 -197 -1308 -486 -96 -79 -248 -237 -325
-339 -286 -377 -442 -857 -459 -1413 -7 -226 2 -308 53 -511 179 -714 837
-2018 1816 -3603 206 -333 349 -556 356 -556 9 0 309 476 535 850 1080 1786
1659 3035 1694 3650 6 114 -9 356 -33 514 -118 791 -555 1398 -1222 1695 -345
154 -704 218 -1107 199z m320 -1528 c260 -66 458 -251 547 -510 30 -89 32
-104 33 -230 0 -162 -14 -223 -82 -360 -40 -80 -62 -110 -143 -190 -104 -105
-192 -158 -325 -200 -99 -30 -257 -38 -361 -16 -368 74 -624 382 -625 752 0
132 22 226 81 349 98 202 284 352 505 406 101 25 270 25 370 -1z"/>
<path d="M3275 3213 c-451 -57 -752 -118 -1030 -209 -601 -197 -947 -477
-1046 -849 -30 -112 -30 -298 0 -410 140 -524 759 -949 1721 -1183 786 -192
1750 -231 2616 -107 737 106 1344 317 1764 613 52 37 147 119 212 182 177 176
269 331 313 534 24 107 17 301 -15 401 -140 447 -659 768 -1525 944 -159 32
-450 76 -576 87 l-76 6 -67 -63 c-47 -43 -63 -65 -54 -69 7 -4 42 -10 78 -14
36 -4 133 -18 215 -32 737 -123 1252 -368 1401 -668 33 -68 38 -89 42 -164 7
-153 -51 -276 -198 -423 -432 -429 -1473 -698 -2640 -683 -1330 18 -2419 408
-2620 939 -29 77 -31 197 -6 272 47 140 181 279 381 396 261 153 733 293 1185
352 69 9 135 18 147 21 19 3 13 12 -46 69 -72 69 -77 71 -176 58z"/>
</g>
</svg>
