<?xml version="1.0" standalone="no"?>
<!DOCTYPE svg PUBLIC "-//W3C//DTD SVG 20010904//EN"
 "http://www.w3.org/TR/2001/REC-SVG-20010904/DTD/svg10.dtd">
<svg version="1.0" xmlns="http://www.w3.org/2000/svg"
 width="80.000000pt" height="80.000000pt" viewBox="0 0 80.000000 80.000000"
 preserveAspectRatio="xMidYMid meet">
<metadata>
Created by potrace 1.16, written by Peter Selinger 2001-2019
</metadata>
<g transform="translate(0.000000,80.000000) scale(0.030769,-0.030769)"
fill="#000000" stroke="none">
<path d="M1083 2525 c-157 -28 -343 -104 -488 -199 -80 -53 -240 -214 -297
-301 -91 -138 -158 -294 -195 -457 -23 -101 -22 -355 1 -458 48 -218 143 -411
277 -567 166 -192 426 -337 694 -388 94 -18 306 -21 396 -5 388 68 705 294
876 625 180 350 188 745 21 1080 -158 315 -391 519 -719 629 -161 54 -399 71
-566 41z m780 -737 l20 -26 -107 -503 c-69 -326 -112 -509 -123 -521 -33 -37
-64 -23 -227 98 l-157 115 -89 -80 c-109 -98 -125 -102 -116 -28 3 28 9 96 12
150 l7 99 226 206 c312 286 346 318 334 325 -6 4 -172 -94 -370 -218 l-358
-225 -165 51 c-91 27 -169 54 -174 59 -6 6 -5 18 1 33 9 18 52 39 209 99 110
42 386 149 614 237 228 88 421 160 429 158 8 -1 23 -14 34 -29z"/>
</g>
</svg>
